<svg width="233" height="80" viewBox="0 0 233 80" fill="none" xmlns="http://www.w3.org/2000/svg">
<g filter="url(#filter0_d_406480_4631)">
<path d="M74.5385 36.2906C73.4378 36.9225 72.1026 37.4219 70.533 37.7888C68.9634 38.1558 67.3326 38.3392 65.6407 38.3392C63.3576 38.3392 61.4109 38.064 59.8006 37.5137C58.2106 36.9633 57.0079 36.1989 56.1925 35.2204C55.3975 34.2419 55 33.1106 55 31.8264C55 30.7052 55.3058 29.7166 55.9173 28.8604C56.5288 28.0043 57.3748 27.3418 58.4552 26.8729C57.6194 26.4449 56.9773 25.8537 56.5288 25.0995C56.1008 24.3249 55.8867 23.4789 55.8867 22.5616C55.8867 21.3793 56.2536 20.2989 56.9875 19.3205C57.7417 18.342 58.8832 17.5572 60.4121 16.9661C61.9409 16.3749 63.8265 16.0793 66.0688 16.0793C67.4753 16.0793 68.8615 16.2118 70.2272 16.4768C71.593 16.7418 72.7957 17.0986 73.8353 17.547L72.1841 22.0724C70.2884 21.2366 68.3315 20.8187 66.3134 20.8187C64.8661 20.8187 63.7857 21.0124 63.0723 21.3997C62.3588 21.7666 62.0021 22.2864 62.0021 22.9591C62.0021 24.1822 62.8888 24.7937 64.6623 24.7937H70.7165V29.4108H64.2648C63.2251 29.4108 62.4403 29.5841 61.9103 29.9306C61.3804 30.2568 61.1154 30.746 61.1154 31.3983C61.1154 32.0914 61.5027 32.6316 62.2773 33.0189C63.0519 33.4062 64.2546 33.5998 65.8853 33.5998C67.0472 33.5998 68.2397 33.4469 69.4628 33.1412C70.7063 32.815 71.7866 32.3768 72.7039 31.8264L74.5385 36.2906Z" fill="black"/>
<path d="M90.1224 29.2274C92.0182 29.8593 92.9661 31.1639 92.9661 33.1412C92.9661 34.6292 92.3851 35.8014 91.2232 36.6575C90.0613 37.4933 88.349 37.9112 86.0863 37.9112H76.7604V21.3385H85.6582C87.819 21.3385 89.4905 21.7157 90.6728 22.4699C91.8755 23.2241 92.4768 24.2841 92.4768 25.6499C92.4768 26.4449 92.273 27.1481 91.8653 27.7597C91.4576 28.3712 90.8767 28.8604 90.1224 29.2274ZM81.9584 28.0043H85.1384C86.4838 28.0043 87.1565 27.5049 87.1565 26.506C87.1565 25.5479 86.4838 25.0689 85.1384 25.0689H81.9584V28.0043ZM85.5665 34.1502C86.973 34.1502 87.6763 33.6406 87.6763 32.6214C87.6763 31.6021 86.9934 31.0925 85.6276 31.0925H81.9584V34.1502H85.5665Z" fill="black"/>
<path d="M103.667 32.0098H101.71V37.9112H95.9007V21.3385H101.71V27.4539H103.79L107.856 21.3385H114.002L108.437 29.2885L114.369 37.9112H107.52L103.667 32.0098Z" fill="black"/>
<path d="M133.174 21.3385V37.9112H127.364V25.9556H123.175L123.053 28.4935C122.971 30.6543 122.757 32.4379 122.411 33.8444C122.064 35.251 121.493 36.3517 120.698 37.1467C119.903 37.9213 118.813 38.3087 117.427 38.3087C116.713 38.3087 115.775 38.1761 114.613 37.9112L114.858 33.1718C115.225 33.2125 115.47 33.2329 115.592 33.2329C116.224 33.2329 116.703 33.0291 117.029 32.6214C117.355 32.2137 117.579 31.6735 117.702 31.0008C117.824 30.3077 117.906 29.3904 117.946 28.2489L118.191 21.3385H133.174Z" fill="black"/>
<path d="M154.14 21.3385V37.9112H148.605V36.1683C147.994 36.8206 147.26 37.32 146.404 37.6665C145.568 38.0131 144.671 38.1863 143.713 38.1863C141.552 38.1863 139.83 37.5544 138.545 36.2906C137.282 35.0267 136.65 33.131 136.65 30.6033V21.3385H142.459V29.6554C142.459 32.0404 143.387 33.2329 145.242 33.2329C146.159 33.2329 146.903 32.9169 147.474 32.285C148.045 31.6327 148.33 30.6441 148.33 29.3191V21.3385H154.14Z" fill="black"/>
<path d="M175.682 21.3385V34.8841C175.682 37.9621 174.847 40.2656 173.175 41.7944C171.504 43.3436 169.098 44.1182 165.959 44.1182C164.328 44.1182 162.799 43.9348 161.372 43.5679C159.946 43.2009 158.733 42.6607 157.734 41.9473L159.844 37.8806C160.516 38.431 161.362 38.859 162.382 39.1648C163.421 39.491 164.44 39.654 165.439 39.654C166.968 39.654 168.089 39.3177 168.803 38.645C169.516 37.9723 169.873 36.9735 169.873 35.6485V35.0981C168.752 36.4027 167.111 37.055 164.95 37.055C163.482 37.055 162.127 36.7289 160.883 36.0765C159.64 35.4039 158.651 34.4662 157.917 33.2635C157.183 32.0404 156.817 30.6339 156.817 29.0439C156.817 27.4743 157.183 26.0881 157.917 24.8855C158.651 23.6624 159.64 22.7247 160.883 22.0724C162.127 21.3997 163.482 21.0634 164.95 21.0634C167.315 21.0634 169.047 21.8278 170.148 23.3566V21.3385H175.682ZM166.326 32.4379C167.366 32.4379 168.222 32.122 168.894 31.49C169.587 30.8581 169.934 30.0427 169.934 29.0439C169.934 28.0451 169.598 27.2399 168.925 26.6283C168.252 25.9964 167.386 25.6804 166.326 25.6804C165.266 25.6804 164.389 25.9964 163.696 26.6283C163.024 27.2399 162.687 28.0451 162.687 29.0439C162.687 30.0427 163.034 30.8581 163.727 31.49C164.42 32.122 165.286 32.4379 166.326 32.4379Z" fill="black"/>
<path d="M64.4259 46.0099V55.9886H61.6319V48.248H57.8399V55.9886H55.0601V46.0099H64.4259Z" fill="black"/>
<path d="M70.5363 48.1339C71.3822 48.1339 72.1187 48.2955 72.7459 48.6186C73.3732 48.9417 73.8531 49.4074 74.1857 50.0156C74.5278 50.6143 74.6989 51.3176 74.6989 52.1254C74.6989 52.9237 74.5421 53.627 74.2285 54.2352C73.9149 54.8339 73.4729 55.2996 72.9027 55.6322C72.3325 55.9554 71.672 56.1169 70.9212 56.1169C70.0374 56.1169 69.3436 55.8461 68.84 55.3044V58.7542H66.1314V52.1539C66.1314 51.3556 66.312 50.6524 66.6731 50.0441C67.0343 49.4359 67.5475 48.9655 68.2127 48.6329C68.878 48.3002 69.6525 48.1339 70.5363 48.1339ZM70.408 53.9644C70.8927 53.9644 71.2824 53.798 71.577 53.4654C71.8811 53.1233 72.0332 52.6766 72.0332 52.1254C72.0332 51.5742 71.8811 51.1323 71.577 50.7997C71.2824 50.4575 70.8927 50.2865 70.408 50.2865C69.9234 50.2865 69.5337 50.4575 69.2391 50.7997C68.9445 51.1323 68.7972 51.5742 68.7972 52.1254C68.7972 52.6861 68.9397 53.1328 69.2248 53.4654C69.5195 53.798 69.9139 53.9644 70.408 53.9644Z" fill="black"/>
<path d="M79.8141 56.1169C78.9873 56.1169 78.2413 55.9459 77.576 55.6037C76.9108 55.2616 76.3881 54.7864 76.008 54.1782C75.6373 53.57 75.452 52.881 75.452 52.1112C75.452 51.3509 75.6373 50.6666 76.008 50.0584C76.3881 49.4502 76.906 48.9797 77.5618 48.6471C78.227 48.305 78.9778 48.1339 79.8141 48.1339C80.6505 48.1339 81.4012 48.305 82.0665 48.6471C82.7317 48.9797 83.2497 49.4502 83.6203 50.0584C83.991 50.6571 84.1763 51.3414 84.1763 52.1112C84.1763 52.881 83.991 53.57 83.6203 54.1782C83.2497 54.7864 82.7317 55.2616 82.0665 55.6037C81.4012 55.9459 80.6505 56.1169 79.8141 56.1169ZM79.8141 53.9644C80.2893 53.9644 80.679 53.8028 80.9831 53.4797C81.2872 53.1471 81.4393 52.6909 81.4393 52.1112C81.4393 51.5409 81.2872 51.0943 80.9831 50.7712C80.679 50.448 80.2893 50.2865 79.8141 50.2865C79.339 50.2865 78.9493 50.448 78.6452 50.7712C78.3411 51.0943 78.189 51.5409 78.189 52.1112C78.189 52.6909 78.3411 53.1471 78.6452 53.4797C78.9493 53.8028 79.339 53.9644 79.8141 53.9644Z" fill="black"/>
<path d="M89.5379 54.0499C89.9085 54.0499 90.2269 53.9976 90.493 53.8931C90.7686 53.7885 91.0442 53.6175 91.3198 53.3799L92.7311 54.8625C91.9993 55.6988 90.9064 56.1169 89.4523 56.1169C88.5495 56.1169 87.7559 55.9459 87.0717 55.6037C86.3874 55.2616 85.8552 54.7864 85.4751 54.1782C85.1044 53.57 84.9191 52.881 84.9191 52.1112C84.9191 51.3509 85.1044 50.6714 85.4751 50.0726C85.8457 49.4644 86.3542 48.9892 87.0004 48.6471C87.6562 48.305 88.3879 48.1339 89.1957 48.1339C89.9465 48.1339 90.6308 48.2907 91.2485 48.6043C91.8758 48.9085 92.3747 49.3599 92.7453 49.9586C93.116 50.5478 93.3013 51.2511 93.3013 52.0684L87.7845 53.1233C88.0791 53.741 88.6635 54.0499 89.5379 54.0499ZM89.21 50.0584C88.7443 50.0584 88.3642 50.2057 88.0696 50.5003C87.775 50.7854 87.6086 51.1988 87.5706 51.7405L90.7068 51.1275C90.6118 50.8044 90.4312 50.5478 90.1651 50.3577C89.899 50.1582 89.5806 50.0584 89.21 50.0584Z" fill="black"/>
<path d="M98.2137 53.2373H97.3014V55.9886H94.5928V48.2622H97.3014V51.1133H98.2707L100.167 48.2622H103.032L100.438 51.9686L103.203 55.9886H100.01L98.2137 53.2373Z" fill="black"/>
<path d="M114.165 48.1339C115.116 48.1339 115.871 48.419 116.432 48.9892C117.002 49.5594 117.287 50.4195 117.287 51.5695V55.9886H114.579V52.0114C114.579 51.4697 114.474 51.0705 114.265 50.8139C114.066 50.5573 113.78 50.429 113.41 50.429C113.001 50.429 112.673 50.5716 112.426 50.8567C112.179 51.1418 112.056 51.5742 112.056 52.1539V55.9886H109.347V52.0114C109.347 50.9565 108.957 50.429 108.178 50.429C107.76 50.429 107.427 50.5716 107.18 50.8567C106.933 51.1418 106.81 51.5742 106.81 52.1539V55.9886H104.101V48.2622H106.681V49.0748C106.966 48.7611 107.304 48.5283 107.693 48.3763C108.093 48.2147 108.525 48.1339 108.991 48.1339C109.532 48.1339 110.017 48.2337 110.445 48.4333C110.872 48.6329 111.219 48.937 111.485 49.3456C111.789 48.956 112.174 48.6566 112.64 48.4475C113.106 48.2385 113.614 48.1339 114.165 48.1339Z" fill="black"/>
<path d="M118.927 48.2622H121.621V51.1275H124.401V48.2622H127.11V55.9886H124.401V53.2801H121.621V55.9886H118.927V48.2622Z" fill="black"/>
<path d="M132.615 56.2167C130.058 56.2167 128.78 55.119 128.78 52.9237V48.2622H131.474V50.7141C131.674 50.5811 131.94 50.4718 132.272 50.3863C132.615 50.3007 133.004 50.258 133.441 50.258C134.392 50.258 135.138 50.5003 135.679 50.985C136.221 51.4602 136.492 52.1682 136.492 53.109C136.492 54.1259 136.14 54.9005 135.437 55.4327C134.743 55.9554 133.802 56.2167 132.615 56.2167ZM137.133 48.2622H139.842V55.9886H137.133V48.2622ZM132.615 54.3635C132.985 54.3635 133.266 54.2542 133.456 54.0356C133.646 53.8171 133.741 53.5272 133.741 53.1661C133.741 52.8144 133.646 52.5388 133.456 52.3392C133.266 52.1397 132.99 52.0399 132.629 52.0399C132.372 52.0399 132.144 52.0874 131.945 52.1824C131.745 52.2775 131.588 52.4058 131.474 52.5673V53.1661C131.474 53.5367 131.569 53.8313 131.759 54.0499C131.949 54.259 132.234 54.3635 132.615 54.3635Z" fill="black"/>
<path d="M145.752 54.0499C146.123 54.0499 146.441 53.9976 146.707 53.8931C146.983 53.7885 147.258 53.6175 147.534 53.3799L148.945 54.8625C148.213 55.6988 147.12 56.1169 145.666 56.1169C144.764 56.1169 143.97 55.9459 143.286 55.6037C142.602 55.2616 142.069 54.7864 141.689 54.1782C141.319 53.57 141.133 52.881 141.133 52.1112C141.133 51.3509 141.319 50.6714 141.689 50.0726C142.06 49.4644 142.568 48.9892 143.215 48.6471C143.87 48.305 144.602 48.1339 145.41 48.1339C146.161 48.1339 146.845 48.2907 147.463 48.6043C148.09 48.9085 148.589 49.3599 148.959 49.9586C149.33 50.5478 149.515 51.2511 149.515 52.0684L143.999 53.1233C144.293 53.741 144.878 54.0499 145.752 54.0499ZM145.424 50.0584C144.958 50.0584 144.578 50.2057 144.284 50.5003C143.989 50.7854 143.823 51.1988 143.785 51.7405L146.921 51.1275C146.826 50.8044 146.645 50.5478 146.379 50.3577C146.113 50.1582 145.795 50.0584 145.424 50.0584Z" fill="black"/>
<path d="M158.833 56.1169C157.978 56.1169 157.213 55.9459 156.538 55.6037C155.863 55.2616 155.336 54.7864 154.955 54.1782C154.585 53.57 154.4 52.881 154.4 52.1112C154.4 51.3414 154.585 50.6571 154.955 50.0584C155.336 49.4502 155.863 48.9797 156.538 48.6471C157.213 48.305 157.978 48.1339 158.833 48.1339C159.707 48.1339 160.463 48.324 161.1 48.7041C161.736 49.0748 162.188 49.5927 162.454 50.258L160.358 51.3271C160.007 50.6334 159.493 50.2865 158.819 50.2865C158.334 50.2865 157.93 50.448 157.607 50.7712C157.293 51.0943 157.137 51.5409 157.137 52.1112C157.137 52.6909 157.293 53.1471 157.607 53.4797C157.93 53.8028 158.334 53.9644 158.819 53.9644C159.493 53.9644 160.007 53.6175 160.358 52.9237L162.454 53.9929C162.188 54.6581 161.736 55.1808 161.1 55.561C160.463 55.9316 159.707 56.1169 158.833 56.1169Z" fill="black"/>
<path d="M171.541 48.2622V55.9886H168.961V55.1761C168.676 55.4802 168.334 55.713 167.935 55.8746C167.545 56.0361 167.127 56.1169 166.68 56.1169C165.673 56.1169 164.87 55.8223 164.271 55.2331C163.682 54.6439 163.387 53.76 163.387 52.5816V48.2622H166.096V52.1397C166.096 53.2516 166.528 53.8076 167.393 53.8076C167.821 53.8076 168.167 53.6602 168.433 53.3656C168.7 53.0615 168.833 52.6006 168.833 51.9829V48.2622H171.541Z" fill="black"/>
<path d="M177.237 56.1169C176.382 56.1169 175.616 55.9459 174.942 55.6037C174.267 55.2616 173.74 54.7864 173.359 54.1782C172.989 53.57 172.803 52.881 172.803 52.1112C172.803 51.3414 172.989 50.6571 173.359 50.0584C173.74 49.4502 174.267 48.9797 174.942 48.6471C175.616 48.305 176.382 48.1339 177.237 48.1339C178.111 48.1339 178.867 48.324 179.503 48.7041C180.14 49.0748 180.592 49.5927 180.858 50.258L178.762 51.3271C178.411 50.6334 177.897 50.2865 177.223 50.2865C176.738 50.2865 176.334 50.448 176.011 50.7712C175.697 51.0943 175.54 51.5409 175.54 52.1112C175.54 52.6909 175.697 53.1471 176.011 53.4797C176.334 53.8028 176.738 53.9644 177.223 53.9644C177.897 53.9644 178.411 53.6175 178.762 52.9237L180.858 53.9929C180.592 54.6581 180.14 55.1808 179.503 55.561C178.867 55.9316 178.111 56.1169 177.237 56.1169Z" fill="black"/>
<path d="M192.055 48.1339C193.005 48.1339 193.761 48.419 194.321 48.9892C194.892 49.5594 195.177 50.4195 195.177 51.5695V55.9886H192.468V52.0114C192.468 51.4697 192.364 51.0705 192.155 50.8139C191.955 50.5573 191.67 50.429 191.299 50.429C190.891 50.429 190.563 50.5716 190.316 50.8567C190.069 51.1418 189.945 51.5742 189.945 52.1539V55.9886H187.237V52.0114C187.237 50.9565 186.847 50.429 186.068 50.429C185.649 50.429 185.317 50.5716 185.07 50.8567C184.823 51.1418 184.699 51.5742 184.699 52.1539V55.9886H181.991V48.2622H184.571V49.0748C184.856 48.7611 185.193 48.5283 185.583 48.3763C185.982 48.2147 186.414 48.1339 186.88 48.1339C187.422 48.1339 187.907 48.2337 188.334 48.4333C188.762 48.6329 189.109 48.937 189.375 49.3456C189.679 48.956 190.064 48.6566 190.53 48.4475C190.995 48.2385 191.504 48.1339 192.055 48.1339Z" fill="black"/>
<path d="M200.908 54.0499C201.279 54.0499 201.597 53.9976 201.863 53.8931C202.139 53.7885 202.414 53.6175 202.69 53.3799L204.101 54.8625C203.369 55.6988 202.277 56.1169 200.822 56.1169C199.92 56.1169 199.126 55.9459 198.442 55.6037C197.758 55.2616 197.225 54.7864 196.845 54.1782C196.475 53.57 196.289 52.881 196.289 52.1112C196.289 51.3509 196.475 50.6714 196.845 50.0726C197.216 49.4644 197.724 48.9892 198.371 48.6471C199.026 48.305 199.758 48.1339 200.566 48.1339C201.317 48.1339 202.001 48.2907 202.619 48.6043C203.246 48.9085 203.745 49.3599 204.115 49.9586C204.486 50.5478 204.671 51.2511 204.671 52.0684L199.155 53.1233C199.449 53.741 200.034 54.0499 200.908 54.0499ZM200.58 50.0584C200.114 50.0584 199.734 50.2057 199.44 50.5003C199.145 50.7854 198.979 51.1988 198.941 51.7405L202.077 51.1275C201.982 50.8044 201.801 50.5478 201.535 50.3577C201.269 50.1582 200.951 50.0584 200.58 50.0584Z" fill="black"/>
<path d="M213.461 55.9886V51.9258L211.48 55.3044H210.325L208.401 51.8688V55.9886H205.963V48.2622H208.814L210.967 52.2965L213.333 48.2622H215.885L215.899 55.9886H213.461Z" fill="black"/>
<path d="M221.404 56.2167C218.848 56.2167 217.57 55.119 217.57 52.9237V48.2622H220.264V50.7141C220.464 50.5811 220.73 50.4718 221.062 50.3863C221.404 50.3007 221.794 50.258 222.231 50.258C223.182 50.258 223.928 50.5003 224.469 50.985C225.011 51.4602 225.282 52.1682 225.282 53.109C225.282 54.1259 224.93 54.9005 224.227 55.4327C223.533 55.9554 222.592 56.2167 221.404 56.2167ZM225.923 48.2622H228.632V55.9886H225.923V48.2622ZM221.404 54.3635C221.775 54.3635 222.055 54.2542 222.245 54.0356C222.436 53.8171 222.531 53.5272 222.531 53.1661C222.531 52.8144 222.436 52.5388 222.245 52.3392C222.055 52.1397 221.78 52.0399 221.419 52.0399C221.162 52.0399 220.934 52.0874 220.734 52.1824C220.535 52.2775 220.378 52.4058 220.264 52.5673V53.1661C220.264 53.5367 220.359 53.8313 220.549 54.0499C220.739 54.259 221.024 54.3635 221.404 54.3635Z" fill="black"/>
<path d="M13.3448 42.7144L21.3505 24.2754H24.0363V29.492L18.3548 42.7144H22.5901V40.3385C22.5901 39.76 23.5542 39.7187 24.0363 39.7704V47.053C22.7141 47.053 22.5212 46.6054 22.5901 46.3816V44.3156H17.5801L5.18409 71.9999H4.71924L7.86988 62.4447C7.86988 62.4447 5.08079 61.36 6.01049 59.0358C6.94018 56.7115 12.5184 44.3156 12.5184 44.3156H6.01049V42.7144H13.3448Z" fill="#FF9900"/>
<path d="M34.2113 42.7144L26.2056 24.2754H23.5198V29.492L29.2013 42.7144H24.966V40.3385C24.966 39.76 24.0019 39.7187 23.5198 39.7704V47.053C24.8421 47.053 25.0349 46.6054 24.966 46.3816V44.3156H29.9761L42.372 71.9999H42.8369L39.6862 62.4447C39.6862 62.4447 42.4753 61.36 41.5456 59.0358C40.6159 56.7115 35.0377 44.3156 35.0377 44.3156H41.5456V42.7144H34.2113Z" fill="#FF9900"/>
<path fill-rule="evenodd" clip-rule="evenodd" d="M23.83 21.5897C26.8537 21.5897 29.3049 19.1385 29.3049 16.1148C29.3049 13.0911 26.8537 10.6399 23.83 10.6399C20.8063 10.6399 18.3551 13.0911 18.3551 16.1148C18.3551 19.1385 20.8063 21.5897 23.83 21.5897ZM23.83 24.5854C28.5081 24.5854 32.3006 20.793 32.3006 16.1148C32.3006 11.4366 28.5081 7.64419 23.83 7.64419C19.1518 7.64419 15.3594 11.4366 15.3594 16.1148C15.3594 20.793 19.1518 24.5854 23.83 24.5854Z" fill="black"/>
<path d="M22.2805 0H25.3795V8.16069H22.2805V0Z" fill="black"/>
</g>
<defs>
<filter id="filter0_d_406480_4631" x="0.719238" y="0" width="233.281" height="80" filterUnits="userSpaceOnUse" color-interpolation-filters="sRGB">
<feFlood flood-opacity="0" result="BackgroundImageFix"/>
<feColorMatrix in="SourceAlpha" type="matrix" values="0 0 0 0 0 0 0 0 0 0 0 0 0 0 0 0 0 0 127 0" result="hardAlpha"/>
<feOffset dy="4"/>
<feGaussianBlur stdDeviation="2"/>
<feComposite in2="hardAlpha" operator="out"/>
<feColorMatrix type="matrix" values="0 0 0 0 0 0 0 0 0 0 0 0 0 0 0 0 0 0 0.25 0"/>
<feBlend mode="normal" in2="BackgroundImageFix" result="effect1_dropShadow_406480_4631"/>
<feBlend mode="normal" in="SourceGraphic" in2="effect1_dropShadow_406480_4631" result="shape"/>
</filter>
</defs>
</svg>
